<?xml version="1.0" standalone="no"?>
<!DOCTYPE svg PUBLIC "-//W3C//DTD SVG 20010904//EN"
 "http://www.w3.org/TR/2001/REC-SVG-20010904/DTD/svg10.dtd">
<svg version="1.0" xmlns="http://www.w3.org/2000/svg"
 width="400.000000pt" height="400.000000pt" viewBox="0 0 400.000000 400.000000"
 preserveAspectRatio="xMidYMid meet">
<metadata>
Created by potrace 1.14, written by Peter Selinger 2001-2017
</metadata>
<g transform="translate(0.000000,400.000000) scale(0.100000,-0.100000)"
fill="#000000" stroke="none">
<path d="M3266 3884 c-9 -8 -16 -12 -16 -8 0 4 -9 -1 -20 -11 -11 -10 -20 -14
-20 -9 0 5 -4 4 -8 -1 -4 -6 -18 -16 -32 -23 -59 -30 -239 -142 -256 -160 -8
-7 -14 -11 -14 -7 0 3 -10 -3 -22 -15 -12 -11 -26 -20 -30 -20 -5 0 -20 -12
-33 -26 -14 -15 -25 -23 -25 -19 0 5 -9 -1 -20 -13 -12 -12 -24 -22 -29 -22
-4 0 -16 -8 -27 -18 -10 -10 -44 -38 -74 -63 -112 -91 -159 -137 -268 -256
-40 -45 -84 -84 -97 -87 -14 -4 -49 -17 -78 -31 l-53 -24 -140 19 c-140 20
-187 27 -214 34 -42 11 -60 19 -60 28 0 5 -3 7 -7 5 -25 -16 -109 50 -146 114
-33 56 -79 178 -71 190 3 5 1 9 -5 9 -5 0 -10 8 -10 18 -1 67 -18 142 -59 269
-23 74 -30 84 -61 99 -35 17 -125 26 -146 15 -5 -3 -16 -6 -23 -7 -8 -2 -21
-6 -30 -10 -21 -9 -21 -9 -57 -19 -16 -4 -46 -19 -65 -34 -19 -14 -40 -28 -46
-31 -20 -8 -134 -119 -134 -131 0 -5 -4 -7 -10 -4 -5 3 -10 1 -10 -5 0 -6 -28
-39 -62 -74 -116 -116 -274 -297 -329 -376 -13 -19 -26 -37 -29 -40 -31 -30
-86 -141 -95 -192 -4 -21 -11 -35 -16 -32 -32 19 -50 10 -116 -61 -37 -41 -69
-78 -70 -83 -1 -5 -32 -48 -68 -96 -59 -78 -65 -91 -65 -134 0 -48 38 -141 76
-190 49 -62 199 -205 279 -268 101 -78 174 -133 220 -168 28 -20 57 -43 65
-49 8 -7 35 -28 60 -47 24 -19 53 -43 65 -53 11 -10 35 -27 53 -38 17 -12 32
-25 32 -30 0 -5 4 -8 9 -6 8 2 62 -39 120 -92 14 -12 38 -29 54 -37 22 -12 25
-18 18 -32 -5 -9 -133 -140 -283 -289 -151 -150 -272 -273 -270 -273 2 0 -14
-15 -36 -32 -23 -18 -41 -38 -41 -45 -1 -6 -9 -14 -18 -17 -10 -3 -91 -79
-179 -169 l-162 -163 2 -50 c3 -69 45 -141 136 -234 66 -67 168 -145 190 -145
5 0 12 -3 16 -8 4 -4 30 -7 57 -7 l50 0 524 525 c513 513 524 524 545 507 11
-9 25 -22 32 -27 6 -6 25 -21 43 -33 34 -24 72 -55 104 -84 10 -10 23 -18 28
-18 5 0 14 -7 21 -16 8 -8 41 -36 74 -61 34 -25 62 -50 64 -55 2 -4 8 -8 13
-8 6 0 24 -13 42 -30 18 -16 36 -30 40 -30 5 0 22 -12 37 -27 45 -43 58 -53
70 -53 5 0 10 -4 10 -8 0 -5 28 -29 63 -54 34 -25 73 -56 87 -68 14 -12 37
-28 53 -36 15 -8 27 -18 27 -23 0 -9 51 -35 63 -33 4 1 7 -3 7 -8 0 -6 7 -10
15 -10 8 0 15 -4 15 -9 0 -5 17 -18 38 -28 96 -51 128 -69 134 -78 4 -5 8 -6
8 -2 0 5 12 -1 26 -12 15 -12 32 -21 38 -21 6 0 43 -15 81 -33 39 -19 73 -35
77 -36 12 -3 39 -12 108 -36 56 -20 145 -48 160 -51 3 0 13 -4 23 -7 56 -22
41 -19 202 -37 135 -15 270 4 373 51 48 22 71 38 67 47 -2 7 0 10 5 7 23 -14
115 87 141 155 25 64 37 179 21 189 -6 3 -12 18 -15 31 -7 47 -52 125 -199
348 -81 122 -147 225 -147 228 0 4 -4 10 -9 13 -15 10 -145 211 -175 270 -14
30 -24 58 -21 62 3 5 0 9 -6 9 -6 0 -8 10 -4 24 3 15 -6 50 -27 97 -22 52 -32
91 -33 131 -1 50 -5 59 -31 82 -17 14 -38 26 -48 26 -10 0 -24 15 -35 37 -9
21 -20 40 -24 41 -5 2 -8 9 -8 15 0 6 -7 19 -16 28 -11 13 -17 38 -18 80 -1
53 -4 64 -29 85 -15 13 -37 24 -47 24 -12 0 -25 13 -36 38 -10 20 -23 44 -30
52 -10 12 -10 19 2 34 8 11 14 16 14 12 0 -7 60 38 112 84 22 20 199 196 220
220 9 11 45 54 80 97 34 43 66 80 70 81 5 2 8 8 8 13 0 8 95 148 120 177 6 6
8 12 5 12 -3 0 3 10 15 22 11 12 20 28 20 35 0 7 5 13 11 13 5 0 8 4 5 9 -3 4
3 16 13 25 11 10 22 28 25 42 4 13 11 24 16 24 6 0 10 4 10 9 0 5 18 40 39 78
48 81 57 119 33 132 -26 13 -51 5 -85 -26 -17 -15 -36 -33 -43 -39 -6 -5 -46
-41 -89 -80 -43 -38 -90 -80 -105 -94 -50 -46 -132 -115 -141 -118 -5 -2 -25
-18 -43 -35 -39 -37 -182 -137 -196 -137 -6 0 -10 -4 -10 -9 0 -4 -21 -15 -47
-23 -40 -13 -49 -13 -61 -2 -11 12 -10 21 10 56 13 24 38 59 55 78 18 19 33
41 33 48 0 6 7 12 15 12 8 0 15 4 15 9 0 10 62 81 133 152 26 27 47 51 47 54
0 3 17 23 38 43 89 90 195 226 217 279 18 43 19 83 3 84 -41 5 -64 3 -70 -6
-4 -5 -11 -10 -15 -10 -4 0 -42 -26 -83 -57 -68 -51 -106 -83 -180 -151 -14
-12 -38 -32 -54 -45 -16 -12 -25 -22 -21 -22 4 0 -11 -14 -33 -30 -23 -17 -47
-39 -54 -50 -7 -11 -18 -20 -25 -20 -6 0 -20 -11 -31 -25 -11 -14 -24 -25 -29
-25 -5 0 -15 -9 -23 -20 -8 -11 -20 -20 -27 -20 -7 0 -13 -7 -13 -15 0 -8 -4
-15 -10 -15 -5 0 -35 -16 -66 -36 -113 -72 -116 4 -6 160 37 53 93 127 103
136 3 3 32 39 65 80 32 41 74 89 92 106 17 17 32 34 32 37 0 3 15 21 33 39
143 151 163 176 165 212 3 35 2 36 -32 36 -19 0 -42 -7 -50 -16z"/>
</g>
</svg>
